<svg xmlns="http://www.w3.org/2000/svg" id="welcome" viewBox="-5 -5 661.6 84.501"><path id="welcome_path" style="transition: fill 1s ease-in-out;" stroke="none" fill="#00000000" stroke-miterlimit="10" stroke-width="1" d="M 27.4 74.2 L 23.9 74.2 L 0 4.2 L 3.6 4.2 L 26.6 71.9 L 24.8 71.9 L 48.5 4.2 L 51.8 4.2 L 75.4 71.9 L 73.7 71.9 L 96.8 4.2 L 100.2 4.2 L 76.3 74.2 L 72.9 74.2 L 49.7 7.8 L 50.5 7.8 L 27.4 74.2 Z M 313.9 74.2 L 310.6 74.2 L 310.6 22.3 L 313.8 22.3 L 313.8 36.8 L 313.4 35.9 Q 315.7 29.5 321.1 25.7 Q 326.5 21.9 334.4 21.9 Q 342.4 21.9 347.65 25.9 Q 352.9 29.9 354.2 37.9 L 353.3 37.5 Q 355.3 30.6 361 26.25 Q 366.7 21.9 375.2 21.9 Q 381.5 21.9 386.05 24.4 Q 390.6 26.9 393.1 31.75 Q 395.6 36.6 395.6 43.7 L 395.6 74.2 L 392.3 74.2 L 392.3 43.9 Q 392.3 34.6 387.75 29.8 Q 383.2 25 375 25 Q 368.8 25 364.2 27.6 Q 359.6 30.2 357.15 35 Q 354.7 39.8 354.7 46.2 L 354.7 74.2 L 351.4 74.2 L 351.4 43.9 Q 351.4 34.6 346.9 29.8 Q 342.4 25 334.2 25 Q 327.9 25 323.35 27.6 Q 318.8 30.2 316.35 35 Q 313.9 39.8 313.9 46.2 L 313.9 74.2 Z M 420.5 74.2 L 417.2 74.2 L 417.2 22.3 L 420.4 22.3 L 420.4 36.8 L 420 35.9 Q 422.3 29.5 427.7 25.7 Q 433.1 21.9 441 21.9 Q 449 21.9 454.25 25.9 Q 459.5 29.9 460.8 37.9 L 459.9 37.5 Q 461.9 30.6 467.6 26.25 Q 473.3 21.9 481.8 21.9 Q 488.1 21.9 492.65 24.4 Q 497.2 26.9 499.7 31.75 Q 502.2 36.6 502.2 43.7 L 502.2 74.2 L 498.9 74.2 L 498.9 43.9 Q 498.9 34.6 494.35 29.8 Q 489.8 25 481.6 25 Q 475.4 25 470.8 27.6 Q 466.2 30.2 463.75 35 Q 461.3 39.8 461.3 46.2 L 461.3 74.2 L 458 74.2 L 458 43.9 Q 458 34.6 453.5 29.8 Q 449 25 440.8 25 Q 434.5 25 429.95 27.6 Q 425.4 30.2 422.95 35 Q 420.5 39.8 420.5 46.2 L 420.5 74.2 Z M 566.6 48.7 L 520.1 48.7 L 520.1 46 L 564.8 46 L 563.5 47.6 Q 563.5 41.1 560.75 35.95 Q 558 30.8 553.2 27.85 Q 548.4 24.9 542.3 24.9 Q 536.2 24.9 531.4 27.85 Q 526.6 30.8 523.85 35.95 Q 521.1 41.1 521.1 47.7 L 521.1 48.3 Q 521.1 55.1 524.1 60.35 Q 527.1 65.6 532.3 68.55 Q 537.5 71.5 544.2 71.5 Q 549.3 71.5 553.85 69.6 Q 558.4 67.7 561.4 63.8 L 563.5 66 Q 560 70.2 554.95 72.35 Q 549.9 74.5 544.2 74.5 Q 536.5 74.5 530.6 71.15 Q 524.7 67.8 521.3 61.8 Q 517.9 55.8 517.9 48.2 Q 517.9 40.5 521.05 34.6 Q 524.2 28.7 529.75 25.3 Q 535.3 21.9 542.3 21.9 Q 549.2 21.9 554.75 25.2 Q 560.3 28.5 563.45 34.35 Q 566.6 40.2 566.6 47.8 L 566.6 48.25 L 566.6 48.7 Z M 586.2 74.2 L 582.9 74.2 L 582.9 22.3 L 586.1 22.3 L 586.1 36.9 L 585.7 36 Q 588.1 29.5 593.65 25.7 Q 599.2 21.9 607.4 21.9 Q 613.8 21.9 618.45 24.4 Q 623.1 26.9 625.7 31.75 Q 628.3 36.6 628.3 43.7 L 628.3 74.2 L 625 74.2 L 625 43.9 Q 625 34.6 620.3 29.8 Q 615.6 25 607.1 25 Q 600.6 25 595.9 27.6 Q 591.2 30.2 588.7 35 Q 586.2 39.8 586.2 46.2 L 586.2 74.2 Z M 268.8 74.5 Q 261.5 74.5 255.75 71.15 Q 250 67.8 246.65 61.8 Q 243.3 55.8 243.3 48.2 Q 243.3 40.5 246.65 34.6 Q 250 28.7 255.75 25.3 Q 261.5 21.9 268.8 21.9 Q 276.1 21.9 281.9 25.3 Q 287.7 28.7 291 34.6 Q 294.3 40.5 294.3 48.2 Q 294.3 55.8 291 61.8 Q 287.7 67.8 281.9 71.15 Q 276.1 74.5 268.8 74.5 Z M 144.4 74.2 L 141.1 74.2 L 141.1 0 L 144.4 0 L 144.4 74.2 Z M 169.9 74.2 L 166.6 74.2 L 166.6 0 L 169.9 0 L 169.9 74.2 Z M 195.4 74.2 L 192.1 74.2 L 192.1 0 L 195.4 0 L 195.4 74.2 Z M 268.8 71.5 Q 275.2 71.5 280.25 68.55 Q 285.3 65.6 288.15 60.3 Q 291 55 291 48.2 Q 291 41.3 288.15 36.05 Q 285.3 30.8 280.25 27.9 Q 275.2 25 268.8 25 Q 262.5 25 257.5 27.9 Q 252.5 30.8 249.55 36.05 Q 246.6 41.3 246.6 48.2 Q 246.6 55 249.55 60.3 Q 252.5 65.6 257.5 68.55 Q 262.5 71.5 268.8 71.5 Z M 210.1 45 L 194.5 59.2 L 194.5 55.2 L 230.6 22.3 L 235 22.3 L 212.3 43.3 L 210.1 45 Z M 118.9 74.2 L 115.6 74.2 L 115.6 22.3 L 118.9 22.3 L 118.9 74.2 Z M 237.3 74.2 L 233.1 74.2 L 209.5 44.6 L 211.9 42.3 L 237.3 74.2 Z M 648.3 74.5 Q 647 74.5 646 73.55 Q 645 72.6 645 71.2 Q 645 69.8 646 68.85 Q 647 67.9 648.3 67.9 Q 649.7 67.9 650.65 68.85 Q 651.6 69.8 651.6 71.2 Q 651.6 72.6 650.65 73.55 Q 649.7 74.5 648.3 74.5 Z M 117.2 8.7 Q 115.9 8.7 114.9 7.7 Q 113.9 6.7 113.9 5.5 Q 113.9 4.1 114.9 3.15 Q 115.9 2.2 117.2 2.2 Q 118.6 2.2 119.55 3.15 Q 120.5 4.1 120.5 5.4 Q 120.5 6.7 119.55 7.7 Q 118.6 8.7 117.2 8.7 Z"/></svg>