<svg xmlns="http://www.w3.org/2000/svg" id="welcome" viewBox="-5 -5 493.9 84.501"><path id="welcome_path" style="transition: fill 1s ease-in-out;" stroke="none" fill="#00000000" stroke-miterlimit="10" stroke-width="1" d="M 27.4 74.2 L 23.9 74.2 L 0 4.2 L 3.6 4.2 L 26.6 71.9 L 24.8 71.9 L 48.5 4.2 L 51.8 4.2 L 75.4 71.9 L 73.7 71.9 L 96.8 4.2 L 100.2 4.2 L 76.3 74.2 L 72.9 74.2 L 49.7 7.8 L 50.5 7.8 L 27.4 74.2 Z M 319.8 74.2 L 316.5 74.2 L 316.5 22.3 L 319.7 22.3 L 319.7 36.8 L 319.3 35.9 Q 321.6 29.5 327 25.7 Q 332.4 21.9 340.3 21.9 Q 348.3 21.9 353.55 25.9 Q 358.8 29.9 360.1 37.9 L 359.2 37.5 Q 361.2 30.6 366.9 26.25 Q 372.6 21.9 381.1 21.9 Q 387.4 21.9 391.95 24.4 Q 396.5 26.9 399 31.75 Q 401.5 36.6 401.5 43.7 L 401.5 74.2 L 398.2 74.2 L 398.2 43.9 Q 398.2 34.6 393.65 29.8 Q 389.1 25 380.9 25 Q 374.7 25 370.1 27.6 Q 365.5 30.2 363.05 35 Q 360.6 39.8 360.6 46.2 L 360.6 74.2 L 357.3 74.2 L 357.3 43.9 Q 357.3 34.6 352.8 29.8 Q 348.3 25 340.1 25 Q 333.8 25 329.25 27.6 Q 324.7 30.2 322.25 35 Q 319.8 39.8 319.8 46.2 L 319.8 74.2 Z M 158.4 48.7 L 111.9 48.7 L 111.9 46 L 156.6 46 L 155.3 47.6 Q 155.3 41.1 152.55 35.95 Q 149.8 30.8 145 27.85 Q 140.2 24.9 134.1 24.9 Q 128 24.9 123.2 27.85 Q 118.4 30.8 115.65 35.95 Q 112.9 41.1 112.9 47.7 L 112.9 48.3 Q 112.9 55.1 115.9 60.35 Q 118.9 65.6 124.1 68.55 Q 129.3 71.5 136 71.5 Q 141.1 71.5 145.65 69.6 Q 150.2 67.7 153.2 63.8 L 155.3 66 Q 151.8 70.2 146.75 72.35 Q 141.7 74.5 136 74.5 Q 128.3 74.5 122.4 71.15 Q 116.5 67.8 113.1 61.8 Q 109.7 55.8 109.7 48.2 Q 109.7 40.5 112.85 34.6 Q 116 28.7 121.55 25.3 Q 127.1 21.9 134.1 21.9 Q 141 21.9 146.55 25.2 Q 152.1 28.5 155.25 34.35 Q 158.4 40.2 158.4 47.8 L 158.4 48.25 L 158.4 48.7 Z M 465.9 48.7 L 419.4 48.7 L 419.4 46 L 464.1 46 L 462.8 47.6 Q 462.8 41.1 460.05 35.95 Q 457.3 30.8 452.5 27.85 Q 447.7 24.9 441.6 24.9 Q 435.5 24.9 430.7 27.85 Q 425.9 30.8 423.15 35.95 Q 420.4 41.1 420.4 47.7 L 420.4 48.3 Q 420.4 55.1 423.4 60.35 Q 426.4 65.6 431.6 68.55 Q 436.8 71.5 443.5 71.5 Q 448.6 71.5 453.15 69.6 Q 457.7 67.7 460.7 63.8 L 462.8 66 Q 459.3 70.2 454.25 72.35 Q 449.2 74.5 443.5 74.5 Q 435.8 74.5 429.9 71.15 Q 424 67.8 420.6 61.8 Q 417.2 55.8 417.2 48.2 Q 417.2 40.5 420.35 34.6 Q 423.5 28.7 429.05 25.3 Q 434.6 21.9 441.6 21.9 Q 448.5 21.9 454.05 25.2 Q 459.6 28.5 462.75 34.35 Q 465.9 40.2 465.9 47.8 L 465.9 48.25 L 465.9 48.7 Z M 239.3 30.8 Q 236 26.4 231 24.15 Q 226 21.9 220.1 21.9 Q 212.7 21.9 206.85 25.25 Q 201 28.6 197.65 34.55 Q 194.3 40.5 194.3 48.2 Q 194.3 55.9 197.65 61.85 Q 201 67.8 206.85 71.15 Q 212.7 74.5 220.1 74.5 Q 226 74.5 231 72.3 Q 236 70.1 239.3 65.6 L 236.8 63.6 Q 233.9 67.6 229.55 69.55 Q 225.2 71.5 220.1 71.5 Q 213.7 71.5 208.6 68.55 Q 203.5 65.6 200.55 60.35 Q 197.6 55.1 197.6 48.2 Q 197.6 41.3 200.55 36.05 Q 203.5 30.8 208.6 27.9 Q 213.7 25 220.1 25 Q 225.2 25 229.55 26.9 Q 233.9 28.8 236.8 32.9 L 239.3 30.8 Z M 274.7 74.5 Q 267.4 74.5 261.65 71.15 Q 255.9 67.8 252.55 61.8 Q 249.2 55.8 249.2 48.2 Q 249.2 40.5 252.55 34.6 Q 255.9 28.7 261.65 25.3 Q 267.4 21.9 274.7 21.9 Q 282 21.9 287.8 25.3 Q 293.6 28.7 296.9 34.6 Q 300.2 40.5 300.2 48.2 Q 300.2 55.8 296.9 61.8 Q 293.6 67.8 287.8 71.15 Q 282 74.5 274.7 74.5 Z M 274.7 71.5 Q 281.1 71.5 286.15 68.55 Q 291.2 65.6 294.05 60.3 Q 296.9 55 296.9 48.2 Q 296.9 41.3 294.05 36.05 Q 291.2 30.8 286.15 27.9 Q 281.1 25 274.7 25 Q 268.4 25 263.4 27.9 Q 258.4 30.8 255.45 36.05 Q 252.5 41.3 252.5 48.2 Q 252.5 55 255.45 60.3 Q 258.4 65.6 263.4 68.55 Q 268.4 71.5 274.7 71.5 Z M 178 74.2 L 174.7 74.2 L 174.7 0 L 178 0 L 178 74.2 Z M 480.6 74.5 Q 479.3 74.5 478.3 73.55 Q 477.3 72.6 477.3 71.2 Q 477.3 69.8 478.3 68.85 Q 479.3 67.9 480.6 67.9 Q 482 67.9 482.95 68.85 Q 483.9 69.8 483.9 71.2 Q 483.9 72.6 482.95 73.55 Q 482 74.5 480.6 74.5 Z"/></svg>